<svg width="648" height="800" viewBox="0 0 648 800" fill="none" xmlns="http://www.w3.org/2000/svg">
<g clip-path="url(#clip0_9_27)">
<path d="M382.842 706.814L386.207 703.448L234.483 482.759L165.518 510.345L327.007 752.566C338.276 730.4 358.442 713.6 382.842 706.814Z" fill="#8697CB"/>
<path d="M425.793 659.848C428.041 663.131 430 666.607 431.807 670.179C432.165 670.897 432.51 671.614 432.855 672.345C434.538 675.917 436.055 679.586 437.255 683.407C437.269 683.434 437.269 683.448 437.283 683.476C438.469 687.269 439.324 691.2 440.014 695.186C440.179 696.138 440.317 697.09 440.455 698.041C440.993 702.069 441.379 706.166 441.379 710.345C441.379 712.524 441.269 714.124 441.117 715.531C440.841 720.345 440.248 725.062 439.241 729.641L648.276 675.862V593.103L425.793 659.848Z" fill="#8697CB"/>
<path d="M351.725 800C401.241 800 441.381 759.86 441.381 710.345C441.381 660.83 401.241 620.69 351.725 620.69C302.21 620.69 262.07 660.83 262.07 710.345C262.07 759.86 302.21 800 351.725 800Z" fill="#556080"/>
<path d="M262.07 449.048C262.07 490.952 228.111 516.483 186.208 516.483C144.304 516.483 110.346 490.952 110.346 449.048H262.07Z" fill="#556080"/>
<path d="M344.828 455.172H45.1862C20.2345 455.172 0 434.938 0 409.986V45.1862C0 20.2345 20.2345 0 45.1862 0H344.828C369.779 0 386.207 20.2345 386.207 45.1862V409.986C386.207 434.938 369.779 455.172 344.828 455.172Z" fill="#ECF0F1"/>
<path d="M193.105 344.828C276.9 344.828 344.829 276.898 344.829 193.103C344.829 109.309 276.9 41.3793 193.105 41.3793C109.31 41.3793 41.3809 109.309 41.3809 193.103C41.3809 276.898 109.31 344.828 193.105 344.828Z" fill="#8697CB"/>
<path d="M193.104 289.655C139.863 289.655 96.5527 246.345 96.5527 193.103C96.5527 139.862 139.863 96.5518 193.104 96.5518C246.346 96.5518 289.656 139.862 289.656 193.103C289.656 246.345 246.346 289.655 193.104 289.655Z" fill="#556080"/>
<path d="M331.035 55.1724C338.653 55.1724 344.828 48.997 344.828 41.3793C344.828 33.7616 338.653 27.5862 331.035 27.5862C323.418 27.5862 317.242 33.7616 317.242 41.3793C317.242 48.997 323.418 55.1724 331.035 55.1724Z" fill="#E64C3C"/>
<path d="M331.036 455.172H55.1738V426.566C55.1738 404.276 73.2428 386.207 95.5324 386.207H290.691C312.981 386.207 331.05 404.276 331.05 426.566L331.036 455.172Z" fill="#D1D4D1"/>
<path d="M137.932 206.897C130.318 206.897 124.139 200.717 124.139 193.103C124.139 155.076 155.077 124.138 193.104 124.138C200.718 124.138 206.897 130.317 206.897 137.931C206.897 145.545 200.718 151.724 193.104 151.724C170.29 151.724 151.725 170.29 151.725 193.103C151.725 200.717 145.546 206.897 137.932 206.897Z" fill="#D0E8F9"/>
</g>
<defs>
<clipPath id="clip0_9_27">
<rect width="648" height="800" fill="white"/>
</clipPath>
</defs>
</svg>
